<svg width="28" height="25" viewBox="0 0 28 25" fill="none" xmlns="http://www.w3.org/2000/svg">
<path d="M17.638 14.5833H16.7532L16.4396 14.3021C17.5752 13.0771 18.1993 11.5132 18.198 9.89584C18.198 8.55669 17.7711 7.24762 16.9711 6.13416C16.1712 5.02071 15.0342 4.15287 13.704 3.6404C12.3738 3.12793 10.91 2.99385 9.49786 3.2551C8.0857 3.51636 6.78854 4.16122 5.77043 5.10813C4.75231 6.05505 4.05897 7.2615 3.77807 8.57491C3.49717 9.88832 3.64134 11.2497 4.19234 12.4869C4.74334 13.7241 5.67642 14.7816 6.8736 15.5256C8.07078 16.2696 9.47827 16.6667 10.9181 16.6667C12.7213 16.6667 14.3789 16.0521 15.6557 15.0313L15.9581 15.3229V16.1458L21.558 21.3438L23.2268 19.7917L17.638 14.5833ZM10.9181 14.5833C8.12934 14.5833 5.87816 12.4896 5.87816 9.89584C5.87816 7.30209 8.12934 5.20834 10.9181 5.20834C13.7069 5.20834 15.9581 7.30209 15.9581 9.89584C15.9581 12.4896 13.7069 14.5833 10.9181 14.5833Z" fill="#686868"/>
</svg>
