<svg width="25" height="25" viewBox="0 0 25 25" fill="none" xmlns="http://www.w3.org/2000/svg">
<path d="M12.5001 6.24996V9.37496L16.6667 5.20829L12.5001 1.04163V4.16663C10.2899 4.16663 8.17033 5.0446 6.60752 6.6074C5.04472 8.17021 4.16675 10.2898 4.16675 12.5C4.16675 14.1354 4.64591 15.6562 5.45841 16.9375L6.97925 15.4166C6.49848 14.5198 6.24792 13.5176 6.25008 12.5C6.25008 10.8424 6.90856 9.25264 8.08066 8.08054C9.25277 6.90844 10.8425 6.24996 12.5001 6.24996ZM19.5417 8.06246L18.0209 9.58329C18.4792 10.4583 18.7501 11.4583 18.7501 12.5C18.7501 14.1576 18.0916 15.7473 16.9195 16.9194C15.7474 18.0915 14.1577 18.75 12.5001 18.75V15.625L8.33341 19.7916L12.5001 23.9583V20.8333C14.7102 20.8333 16.8298 19.9553 18.3926 18.3925C19.9554 16.8297 20.8334 14.7101 20.8334 12.5C20.8334 10.8645 20.3542 9.34371 19.5417 8.06246Z" fill="black"/>
</svg>
