<svg width="25" height="25" viewBox="0 0 25 25" fill="none" xmlns="http://www.w3.org/2000/svg">
<path d="M12.4895 2.08337C6.7395 2.08337 2.08325 6.75004 2.08325 12.5C2.08325 18.25 6.7395 22.9167 12.4895 22.9167C18.2499 22.9167 22.9166 18.25 22.9166 12.5C22.9166 6.75004 18.2499 2.08337 12.4895 2.08337ZM12.4999 20.8334C7.89575 20.8334 4.16659 17.1042 4.16659 12.5C4.16659 7.89587 7.89575 4.16671 12.4999 4.16671C17.1041 4.16671 20.8333 7.89587 20.8333 12.5C20.8333 17.1042 17.1041 20.8334 12.4999 20.8334ZM12.2708 7.29171H12.2083C11.7916 7.29171 11.4583 7.62504 11.4583 8.04171V12.9584C11.4583 13.323 11.6458 13.6667 11.9687 13.8542L16.2916 16.448C16.6458 16.6563 17.1041 16.5521 17.3124 16.198C17.3647 16.1136 17.3995 16.0196 17.4147 15.9215C17.4299 15.8235 17.4253 15.7233 17.401 15.6271C17.3767 15.5309 17.3332 15.4405 17.2733 15.3614C17.2133 15.2823 17.1381 15.2161 17.052 15.1667L13.0208 12.7709V8.04171C13.0208 7.62504 12.6874 7.29171 12.2708 7.29171Z" fill="black"/>
</svg>
